<svg id="Capa_1" data-name="Capa 1" xmlns="http://www.w3.org/2000/svg" viewBox="0 0 203.04 268.09"><defs><style>.cls-1,.cls-4{fill:#fff;}.cls-2{fill:#fefefe;}.cls-3,.cls-5{fill:#2d7182;}.cls-4{stroke:#000;}.cls-4,.cls-6,.cls-7{stroke-miterlimit:17.07;}.cls-5,.cls-7{stroke:#2d7182;}.cls-5{stroke-miterlimit:10;stroke-width:0.75px;}.cls-6,.cls-7{fill:none;}.cls-6{stroke:#fff;stroke-width:3px;}</style></defs><g id="Capa_4" data-name="Capa 4"><path class="cls-1" d="M118.19,10.16V9.9S118.32,10,118.19,10.16Z" transform="translate(-38.84 -8.03)"/><path class="cls-1" d="M241.43,97l-.25,88.25v2.36a80.29,80.29,0,0,1-9.47,36.45c-15.82,30-49.93,51.05-89.79,51.7-32.42.55-61.49-12.49-80.3-33.21A82.66,82.66,0,0,1,39.55,191l-.4-90.28s15.68-14.23,17.94-20c1.62-4.12,6.11-1.12,9.78-3.89,4.42-3.34-.2-7.69,4.42-14.38C74.38,58.06,78,59,80.38,56.22c3.22-3.63,4.22-9.94,7.43-13.14.86-.85,2.82-3.11,3.78-4s3.1,2.43,4,1.49c1.24-1.38,2.13-5.55,3.31-6.91,7-8.07,10.2-14.8,14-19.42a68.51,68.51,0,0,0,4.29-5.45,46.8,46.8,0,0,0,5.45,7.16c9.09,10.62,25.75,28.85,25.75,28.85L165,31.08l8.83,7.82a11.58,11.58,0,0,0,2.15,1.45L183,44a13.51,13.51,0,0,1,4.11,3.25l7,8.29a58.66,58.66,0,0,0,10.24,9.55l9,6.47a62.72,62.72,0,0,1,7.81,6.75Z" transform="translate(-38.84 -8.03)"/><path class="cls-2" d="M106.38,113.76H51.53c-.51,0-.62.11-.62.62v72.5c0,.48,0,.66.58.66h55c.49,0,.6,0,.6-.57V114.4C107,113.82,106.85,113.76,106.38,113.76ZM99.29,187H86.69c-3-.09-5.91-.17-8.87-.15H58.89c-.27,0-.4,0-.49-.18a1.18,1.18,0,0,1-.09-.37,27.1,27.1,0,0,1-.09-3.12c0-.37,0-.53.27-.58h5.78a19.28,19.28,0,0,1,3,0,.48.48,0,0,0,.29,0h0c.13,0,.15-.22.16-.4,0-.6-.11-1.19-.11-1.82V165.76c0-4.15.2-8.29,0-12.46-.14-4.89.19-9.74,0-14.7v-6h-.09l-.34.16a9.87,9.87,0,0,0-2.71,2,55.19,55.19,0,0,0-4.35,5.86l-.25.25h0a8.25,8.25,0,0,1-.22-3.63A24.13,24.13,0,0,1,61,132.33c.42-1.22,1.07-2.33,1.55-3.49a1,1,0,0,1,0-.24h0v-.22a.69.69,0,0,0-.53,0,12.2,12.2,0,0,1-2.49-.13,10.06,10.06,0,0,0-1.82.11l-.73.09-.63.13-.77.18a13.93,13.93,0,0,0-2.16.78l-1.82.82h0A13.93,13.93,0,0,1,53.49,126,8.66,8.66,0,0,1,58,122.65a7.06,7.06,0,0,1,.91-.21,7.81,7.81,0,0,1,2.55-.13h3.81c-.4-.6-.82-1.18-1.27-1.82-1.4-1.63-2.65-3.38-4.18-4.91-.13-.14-.42-.27-.29-.49a.36.36,0,0,1,.25-.18h.29a9.59,9.59,0,0,1,8,2.54c.41.37.71,1.08,1.2,1.06h0c.47,0,.76-.6,1.14-.93a11.54,11.54,0,0,1,4.13-2.31,10.13,10.13,0,0,1,1.45-.32h.37a6.68,6.68,0,0,1,2.22.21c.36.1.43.22.14.51s-.62.6-.91.91l-1.33,1.53-3.63,4.14a2.2,2.2,0,0,0-.15.31h3.13a20.53,20.53,0,0,1,4.82.4,5.59,5.59,0,0,1,2.76,1.73,11.23,11.23,0,0,1,3.18,5.64v.32l-3-1.31a13.61,13.61,0,0,0-7.17-.81c-.56.09-.69.14-.61.43l.18.42a29,29,0,0,1,2.67,7.27c0,.38.11.75.13,1.15h0a11.93,11.93,0,0,1-.13,2.67,1.45,1.45,0,0,1-.34.87c-2.2-3.11-3.79-6.74-7.68-8.4v2.88c0,1.6-.12,3.2,0,4.78v21.7c0,2.17-.11,4.33,0,6.48a2.41,2.41,0,0,0,0,.38c.13,2.32,0,4.34,0,6.41v6.68c0,.45.11.6.57.6,2.32,0,4.69.2,7,0,3.11-.17,6.22,0,9.35,0,.51,0,.69-.11.69-.66V158.81c0-.58-.18-.58-.6-.34a13.56,13.56,0,0,0-4.36,4,21.1,21.1,0,0,0-2.31,3.49,4.83,4.83,0,0,1-.51.68,10.56,10.56,0,0,1-.42-2.73,11.34,11.34,0,0,1,.31-2.6,29.27,29.27,0,0,1,2.64-6.55c.09-.21.16-.36.2-.47s0-.29-.66-.33a4,4,0,0,1-1.42-.16,9.8,9.8,0,0,0-6,1.51l-1.2.58h0c.84-3,1.64-5.94,4.47-7.58a7.9,7.9,0,0,1,4.18-.62h3.26a5.84,5.84,0,0,0-.88-1.32,50.23,50.23,0,0,0-3.43-4.39c-.31-.3-.66-.56-1-.85l-.26-.24c-.09,0-.09-.09,0-.22a.76.76,0,0,1,.51-.19,8.11,8.11,0,0,1,6.69,1.38,9.32,9.32,0,0,1,2.05,1.81c.28.3.46.31.77,0a13.74,13.74,0,0,1,5.87-3.14,5.41,5.41,0,0,1,3.33,0c.45.16.29.33.12.47l-.2.16c-1.27,1.26-2.47,2.6-3.63,4l-2.38,2.78H97.8a8.71,8.71,0,0,1,3.2.45,6.13,6.13,0,0,1,3.63,3.39A26.48,26.48,0,0,1,106,156h-.17l-.49-.11a17.7,17.7,0,0,1-1.81-1,6.67,6.67,0,0,0-4-1h-.4c-.42,0-.84.11-1.29.13h0a4.21,4.21,0,0,0-.71,0c-.4.11-.29.35.11,1.11a22,22,0,0,1,2.51,7.56,12.54,12.54,0,0,1,0,3,1.7,1.7,0,0,1-.39.91h0c-2-3.2-3.9-6.54-7.61-8.4h0a20.12,20.12,0,0,0,0,2.69,23.54,23.54,0,0,1,0,2.91c0,3.64-.18,7.36,0,11v7.28c0,.36,0,.58.2.67h.42c2.18-.2,4.36,0,6.54,0,.65,0,.84.27.82.84v2.87a.33.33,0,0,1,0,.14A.43.43,0,0,1,99.29,187Z" transform="translate(-38.84 -8.03)"/><path class="cls-3" d="M101.07,148a8.94,8.94,0,0,0-3.17-.43H93.34l2.44-2.84c1.2-1.36,2.4-2.71,3.63-4,.17-.17.57-.39,0-.58a5.58,5.58,0,0,0-3.31-.1,14.6,14.6,0,0,0-5.83,3.33c-.31.31-.49.27-.77,0a8.9,8.9,0,0,0-2-1.82,8.14,8.14,0,0,0-6.69-1.38c-.18,0-.42,0-.49.22s.14.31.27.44.66.54,1,.87a45,45,0,0,1,3.43,4.36,6.09,6.09,0,0,1,.87,1.33H82.56a7.8,7.8,0,0,0-4.18.62c-2.84,1.63-3.64,4.53-4.47,7.58l1.25-.6a9.67,9.67,0,0,1,6-1.51c.48,0,1,.11,1.42.15.8,0,.82,0,.46.79a29.27,29.27,0,0,0-2.64,6.55,10.19,10.19,0,0,0,.11,5.34,5.13,5.13,0,0,0,.51-.69,22.44,22.44,0,0,1,2.31-3.49,13.56,13.56,0,0,1,4.36-4c.44-.24.62-.24.6.35v4.21c0,3.37-.13,6.71,0,10.09.13,3,0,6,0,9.09,0,.55-.16.66-.69.66-3.13,0-6.24-.22-9.33,0-2.34.14-4.69,0-7,0-.46,0-.58-.15-.57-.6v-5.29c0-2.6.09-5.19,0-7.8s0-5.66,0-8.51v-5.84c0-4.74.19-9.49,0-14.21v-7.66c3.89,1.66,5.46,5.29,7.69,8.4a1.73,1.73,0,0,0,.35-.89,13.72,13.72,0,0,0,0-3.84,30,30,0,0,0-2.69-7.27c-.31-.69-.31-.74.44-.85a13.49,13.49,0,0,1,7.16.83l3,1.31v-.34a11.3,11.3,0,0,0-3.18-5.64,5.57,5.57,0,0,0-2.76-1.72,21.65,21.65,0,0,0-4.82-.39H72.81A3.13,3.13,0,0,1,73,122l4.8-5.88c.27-.31.6-.61.91-.91s.22-.41-.15-.5a6.74,6.74,0,0,0-2.49-.2,11.28,11.28,0,0,0-5.67,2.65c-.4.35-.8.93-1.2.95s-.78-.68-1.2-1.06a9.56,9.56,0,0,0-8-2.54c-.2,0-.47,0-.55.21s.17.35.29.5c1.53,1.52,2.78,3.27,4.18,4.9A15.5,15.5,0,0,1,65.2,122H61.38a8.53,8.53,0,0,0-7.93,3.64A13.47,13.47,0,0,0,51.51,130l1.82-.8a14.41,14.41,0,0,1,6.1-1.29,13.21,13.21,0,0,0,2.51.13c.19,0,.4-.11.51,0s0,.31-.13.45c-.47,1.18-1.12,2.29-1.54,3.49a24.31,24.31,0,0,0-1.29,4.89,8.56,8.56,0,0,0,.23,3.8l.28-.27a52.64,52.64,0,0,1,4.32-5.86,9.63,9.63,0,0,1,3.15-2.2c.14,2.08,0,4,.09,6,.16,4.88-.16,9.75,0,14.71.11,4.16-.11,8.29,0,12.45v4.24c0,3.46-.11,6.91-.09,10.38,0,.57.14,1.17.11,1.82,0,.29,0,.51-.46.47-1,0-2,0-3.05,0H58.62c-.48,0-.62.13-.6.62,0,1,0,2.07.09,3.13,0,.42.12.54.58.54h3.63c2.75,0,5.46,0,8.22.11h7.07c3,0,5.93,0,8.87.15h5.06c2.47,0,5,0,7.27.12.47,0,.6-.12.58-.58v-2.87c0-.56-.14-.85-.82-.84-2.16,0-4.36-.14-6.54,0-.58,0-.66-.16-.68-.69v-7.27c-.09-3.63,0-7.36.11-11a20.47,20.47,0,0,0,0-2.93,25.41,25.41,0,0,1,0-2.76c3.64,1.81,5.46,5.23,7.64,8.47a1.86,1.86,0,0,0,.38-.93,11.59,11.59,0,0,0,0-3A21.45,21.45,0,0,0,97,155.09c-.56-1.13-.52-1.13.69-1.22a5,5,0,0,0,1.28-.11,6.56,6.56,0,0,1,4.43.91c.59.36,1.2.7,1.82,1l.62.22a29.33,29.33,0,0,0-1.37-4.29A6.11,6.11,0,0,0,101.07,148Z" transform="translate(-38.84 -8.03)"/><path class="cls-2" d="M230.2,114.06H174.44c-.51,0-.65,0-.65.6V187.9c0,.55.14.66.65.66h55.7c.55,0,.69,0,.69-.66V114.73C230.83,114.13,230.71,114.06,230.2,114.06ZM181.2,187v-.2a30.36,30.36,0,0,1,.13-3.16c0-.49.36-.35.62-.35h6.61a.86.86,0,0,0,.62-.16c.11-.11.13-.31.11-.6a17.94,17.94,0,0,1,0-3.11c.18-2.33,0-4.69,0-7,.11-1.82,0-3.64,0-5.46.11-2.45,0-4.89,0-7.27a4.89,4.89,0,0,1,.09-.53,1.68,1.68,0,0,1,.09-.32,9,9,0,0,0-4.21,3.21,34.67,34.67,0,0,0-3.64,4.89.28.28,0,0,1-.09.2,1.22,1.22,0,0,1-.38-.91,16.3,16.3,0,0,1,1.2-7.27c.6-1.25,1.14-2.54,1.82-3.78.14-.27.2-.45.12-.54s-.23-.17-.54-.17a12.38,12.38,0,0,1-2-.11,8.23,8.23,0,0,0-4.24.93l-2.14,1.09-.4.2a13.13,13.13,0,0,1,2.78-6.36,4.89,4.89,0,0,1,3.4-1.64c1.82-.11,3.63-.11,5.45-.11a2.58,2.58,0,0,1,.68,0c.12-.27,0-.45-.19-.63-1.81-2-3.34-4.35-5.34-6.22-.13-.13-.37-.24-.31-.46s.33,0,.51-.11a7.38,7.38,0,0,1,4.38.35l.73.31a1.65,1.65,0,0,1,.36.16,11.33,11.33,0,0,1,2.87,2.08c.57.56.77.78.95.7h0c.14,0,.31-.3.69-.7a9.34,9.34,0,0,1,8.38-2.88c.15,0,.38,0,.49.15h0v.09c0,.09-.18.31-.31.45a50.22,50.22,0,0,0-4.63,5.46c-.26.34-.55.63-.89,1h2.65a13.72,13.72,0,0,1,3.2.22,5.09,5.09,0,0,1,1.51.47h0a6.25,6.25,0,0,1,3.11,3.46c.38,1.09.89,2.12,1.18,3.25a3.19,3.19,0,0,0,.22.91h0c-.71-.4-1.46-.78-2.19-1.14l-1.14-.51-1.13-.48a22.48,22.48,0,0,0-4.92,0c1.92,3.9,3.63,7.82,2.67,12.31a1.31,1.31,0,0,1,0,.28,23.07,23.07,0,0,1-1.51-2.28,17.64,17.64,0,0,0-2.22-3.07,10.94,10.94,0,0,0-3-2.82h0c-.55-.29-.66-.18-.66.39v9.19c0,2.2.13,4.42,0,6.6s0,4.31,0,6.48v.29c-.1.87,0,1.21.3,1.36a3,3,0,0,0,1,.09c1.31,0,3.26-.2,4.89-.09,2.33.13,4.64,0,7,0h3.63c.44,0,.6-.09.62-.62V168c.13-1.69,0-3.36,0-5,.13-2.63,0-5.29.11-7.92.11-2.08-.11-4.13,0-6.18s0-4.53,0-6.77v-6.27c0-.71.09-1.45.11-2.22v-.31a10.6,10.6,0,0,0-4.47,3.64c-1.17,1.4-2.08,3-3.13,4.51a.19.19,0,0,1-.09.16,1.14,1.14,0,0,1-.4-.91,12.69,12.69,0,0,1,.94-6.69c.62-1.49,1.22-2.94,1.82-4.36.15-.31.18-.49,0-.6a.88.88,0,0,0-.54-.16,18.29,18.29,0,0,0-5.95.29,16.22,16.22,0,0,0-3.27,1.32l-.58.26-.37.18a4.06,4.06,0,0,1,.42-1.64,10.74,10.74,0,0,1,4.49-5.45,8.1,8.1,0,0,1,3.31-.8c1.29-.13,2.6-.09,3.89-.13.6,0,1.2.31,1.82,0-.76-.87-1.51-1.65-2.16-2.52a39.5,39.5,0,0,0-3.49-3.93c-.6-.62-.53-.82.31-1a7.64,7.64,0,0,1,6.3,1.65c.77.64,1.64,1.2,2.37,1.82a.28.28,0,0,0,.25,0,1,1,0,0,1,.24,0c.11,0,.62-.66,1-1a9.86,9.86,0,0,1,7.11-2.55.81.81,0,0,1,.31,0,2.11,2.11,0,0,1,.93.35v.12c.16.33-.39.38-.59.62a60.31,60.31,0,0,0-5,6.16.61.61,0,0,0,.35.17h.38a31.15,31.15,0,0,1,5,.23,8.13,8.13,0,0,1,1.54.33,8,8,0,0,1,4.4,3.45,11.4,11.4,0,0,1,1.73,4.22c-.45-.14-.91-.33-1.36-.49a7.92,7.92,0,0,1-1-.44h-.09l-.26-.12a14.26,14.26,0,0,0-7.54-.75c-.49,0-.49.26-.31.6s.65,1.13.92,1.71a19.41,19.41,0,0,1,2,6.87,7.67,7.67,0,0,1-.33,3.4.38.38,0,0,0,0,.15,4.4,4.4,0,0,1-1.09-1.44,19.32,19.32,0,0,0-2.29-3.38,12.18,12.18,0,0,0-3.15-3.09l-.41-.29-.2-.09c-.57-.29-.57-.24-.57.52,0,1.39.13,2.79,0,4.19-.16,2.3,0,4.61-.11,6.9v13c0,2.07.13,4.16,0,6.23s0,4.33-.09,6.48.13,4.2,0,6.25,0,3.55-.09,5.33c0,.71,0,.87.44.89h.49a39.22,39.22,0,0,1,4.6,0h3.38c.24,0,.4,0,.47.16a.58.58,0,0,1,.11.46v3.23c0,.29,0,.49-.36.44-2-.27-3.95,0-5.89-.09-2.29-.15-4.56.14-6.82,0-1.67-.13-3.34,0-5,0H197c-1.81,0-3.63.11-5.45,0-2.43-.15-4.85,0-7.27,0a18.43,18.43,0,0,0-2.35,0h0c-.6-.29-.69-.42-.69-.75Z" transform="translate(-38.84 -8.03)"/><path class="cls-3" d="M222,123a29,29,0,0,0-5-.22c-.23,0-.51.1-.72-.12a59.13,59.13,0,0,1,5-6.18c.2-.22.71-.4.59-.6a2,2,0,0,0-1-.49.81.81,0,0,0-.31,0,9.85,9.85,0,0,0-7.11,2.54c-.34.31-.64.64-1,1s-.27.28-.49,0c-.73-.67-1.6-1.21-2.37-1.81a7.69,7.69,0,0,0-6.31-1.66c-.83.15-.9.37-.3,1a46.43,46.43,0,0,1,3.49,3.93c.65.87,1.41,1.66,2.16,2.53a4.3,4.3,0,0,1-1.82,0,38.49,38.49,0,0,0-3.87.13,8.1,8.1,0,0,0-3.31.8,10.65,10.65,0,0,0-4.51,5.45,4.73,4.73,0,0,0-.42,1.65l1-.45a15.63,15.63,0,0,1,3.27-1.31,18.29,18.29,0,0,1,6-.29c.61,0,.74.18.47.74a43.77,43.77,0,0,0-1.82,4.37,12.88,12.88,0,0,0-.94,6.69,1.11,1.11,0,0,0,.4.91,56.12,56.12,0,0,1,3.23-4.67,10.57,10.57,0,0,1,4.46-3.64,19.55,19.55,0,0,1-.11,2.54c-.13,2.08,0,4.15,0,6.26v13c-.13,2.62,0,5.27-.11,7.91-.09,1.67,0,3.34,0,5-.13,2.15,0,4.31,0,6.46v8.12c0,.53-.18.64-.62.62-1.22-.09-2.44,0-3.64,0h-7c-1.62,0-3.25,0-4.89.09s-1.45,0-1.31-1.45V168.36c0-3.08.17-6.17,0-9.2,0-.55.11-.66.64-.38a11,11,0,0,1,3.24,2.8,16,16,0,0,1,2.21,3.07,24.53,24.53,0,0,0,1.51,2.25c1.11-4.62-.65-8.6-2.6-12.58a22.39,22.39,0,0,1,4.91,0,35.18,35.18,0,0,1,4.46,2.15c-.09-.42-.15-.69-.22-1-.29-1.12-.8-2.16-1.17-3.25a6.06,6.06,0,0,0-4.65-3.93,14.94,14.94,0,0,0-3.2-.22h-2.67c.34-.4.63-.69.89-1a49.29,49.29,0,0,1,4.63-5.46c.11-.14.39-.23.31-.45s-.36-.22-.54-.24a9.36,9.36,0,0,0-8.38,2.87c-.84.91-.58,1-1.66,0a11.12,11.12,0,0,0-4-2.54,7.54,7.54,0,0,0-4.38-.35c-.18,0-.44-.12-.51.11s.18.33.31.46c2,1.82,3.47,4.22,5.34,6.22.17.18.31.36.19.63a3.86,3.86,0,0,0-.68,0c-1.82,0-3.63,0-5.45.13a4.77,4.77,0,0,0-3.4,1.62,13,13,0,0,0-2.78,6.38c.92-.49,1.82-.89,2.54-1.31a8.13,8.13,0,0,1,4.24-.93c.67,0,1.36.13,2,.11s.71.2.41.73c-.63,1.22-1.18,2.51-1.81,3.76a16.59,16.59,0,0,0-1.2,7.27,1.3,1.3,0,0,0,.38.91,32.3,32.3,0,0,1,3.63-5.07,9.12,9.12,0,0,1,4.24-3.24,2.59,2.59,0,0,0-.18.86v7.27c-.11,1.82,0,3.64,0,5.45-.18,2.35,0,4.71-.11,7.06a23.05,23.05,0,0,0,0,3.11c0,.58,0,.78-.71.74a60.91,60.91,0,0,0-6.62,0c-.23,0-.6-.14-.6.35a29,29,0,0,1-.13,3.36c0,.36,0,.47.44.47h2.35c2.45,0,4.87-.11,7.27,0,1.82.13,3.63,0,5.45,0,2.57.09,5.13,0,7.71,0h5c2.25.15,4.54-.14,6.82,0,1.94.17,3.92-.18,5.89.09.34,0,.38-.14.36-.45v-3.24c0-.45-.11-.61-.58-.61h-3.36a39.56,39.56,0,0,0-4.62,0c-.89,0-.95,0-.93-.88,0-1.81,0-3.63.09-5.34.18-2.06,0-4.15,0-6.26s-.09-4.29.09-6.47,0-4.16,0-6.23c0-2.89,0-5.78.09-8.66V145c.13-2.31,0-4.62.11-6.91.09-1.4,0-2.8,0-4.2,0-.83,0-.83.77-.42l.41.28a12.1,12.1,0,0,1,3.15,3.11,18.8,18.8,0,0,1,2.29,3.36,4.4,4.4,0,0,0,1.09,1.44,8,8,0,0,0,.36-3.53,19.3,19.3,0,0,0-1.94-6.89c-.27-.58-.6-1.13-.91-1.71s-.22-.53.29-.58a14.1,14.1,0,0,1,7.55.73,20.45,20.45,0,0,0,3,1.23,11.3,11.3,0,0,0-1.73-4.2A8,8,0,0,0,222,123Z" transform="translate(-38.84 -8.03)"/><path class="cls-4" d="M243.83,269.15" transform="translate(-38.84 -8.03)"/><path class="cls-5" d="M221.07,78.3a62.1,62.1,0,0,0-7.82-6.75L204.38,65a58.55,58.55,0,0,1-10.23-9.54l-7-8.29A13.42,13.42,0,0,0,183,44l-7-3.63a11.4,11.4,0,0,1-2.14-1.46L165,31.05,148.48,44.72s-16.71-18.18-25.74-28.85a47,47,0,0,1-5.46-7.17A68.18,68.18,0,0,1,113,14.16c-3.81,4.62-7,11.34-14,19.41C97.8,34.94,96.9,39,95.67,40.48c-.91,1-3.06-2.45-4-1.49s-2.93,3.2-3.78,4.06c-3.22,3.2-4.22,9.45-7.44,13.14-2.42,2.74-6,1.82-9.09,6.22-4.62,6.69,0,11-4.42,14.38-3.63,2.76-8.16-.24-9.78,3.89-2.25,5.71-17.94,20-17.94,20l.4,90.28a82.61,82.61,0,0,0,22.07,51.55c18.82,20.73,47.89,33.76,80.3,33.22,39.87-.66,74-21.73,89.79-51.7a80.32,80.32,0,0,0,9.47-36.45v-2.37L241.51,97ZM49.85,113.67l9.75-12.23a.85.85,0,0,1,1.2,0l.16.2c1.24,2.25,3.87,7.27,4,7.27l-4.3-14.69a1.06,1.06,0,0,1,1.27-.82h0a2,2,0,0,1,.4.18l5.45,3.64a1.09,1.09,0,0,0,1,.16L74,90.49a1.1,1.1,0,0,1,1.53-.21h0a1.81,1.81,0,0,1,.29.33c1.12,2.16,2.91,6.13,3.2,6.49L74.76,76.73c0-1,1.49-5.85,2.16-5.12l10.38,18a88.29,88.29,0,0,0,5.8,9.85,21.18,21.18,0,0,0,9.18,7.27l17.22,7.37c-3.38-6.8-23.22-6.78-25.74-19.84a33,33,0,0,0-3.82-9.18L78.67,67.26a1,1,0,0,1,.16-1.4l0,0a1.09,1.09,0,0,1,.58-.2l4.46-.4a1,1,0,0,1,.87.27l2.38,1.82a53.08,53.08,0,0,1,4.11,3.82,10.4,10.4,0,0,1,1,1.27l2,2.88a9.61,9.61,0,0,0,5,2.74l9,2.07c.29,0,2.73.77,2.55.55-1-1.29-8.53-1.53-12.85-4.6a20.67,20.67,0,0,1-4.77-5.6l-5.61-6.74a.93.93,0,0,1-.17-.62L91.78,51A1.1,1.1,0,0,1,93,50.12a1,1,0,0,1,.58.29l3.64,1.22c3.25,1,5,4.92,7,7.58s4.82,6.22,6,7.72a9.61,9.61,0,0,1,.91,1.46A90.06,90.06,0,0,1,116,78.79c1.82,6.51-2,11.32,1.2,15.87a60.69,60.69,0,0,0,4.43,4.78,20.19,20.19,0,0,0,8.46,4.94l10.11,3a.9.9,0,0,1,.54.33c.25.27.2,0,.49,0h.24s-14.71-4.36-17.16-8.6l-3.26-4.21c-4.58-5.46-.49-8.24-1.11-12.4a39,39,0,0,0-1.29-5.66l-1.62-5.29A47,47,0,0,0,108.83,56l-4.55-5.67a2.84,2.84,0,0,1,.39-3.64c1.4-1.32,3.47-2.67,4.89-2.16,2.54.93,5.67,4.58,7,6.8l3.07,5.25c1.16-.92-.53-4.4-1.82-6.94a14.93,14.93,0,0,0-3.31-4.15L103,35.43a1,1,0,0,1,0-.89l13.25-19.23a1.11,1.11,0,0,1,1.48-.53,2.54,2.54,0,0,1,.36.29L136.7,38l2.6,3a6.75,6.75,0,0,1,1.65,4l.24,3.86c.27,1.81,6.85,10.41,5.16,11.47-3.22,2-7.85.71-12.32.49a.24.24,0,0,0-.29.2.24.24,0,0,0,.16.29h0l7.65,2.42c-.54,2.41-4.51,4.09-2.51,5.74a28.19,28.19,0,0,0,5.71,3l5.76,2.32a19.08,19.08,0,0,1,3.24,1.82,26.28,26.28,0,0,1,3.2,2.57L163.2,86A6.29,6.29,0,0,1,165,89.06c.13.73.53,2.46-.12,3s-4.33-1.6-5.46-1.64a53.13,53.13,0,0,0-5.91.27c-4.65.66-9.09,3.2-8.07,3.64a14.34,14.34,0,0,1,6.8-2.58,29.72,29.72,0,0,1,8.22,1.2,22.88,22.88,0,0,1,6.65,2.78c1.71,2.07,4.22,5.18,4.27,5.27l4.59,3.82a29.86,29.86,0,0,1,6.41,7.27c.37.62.77,1.22,1.18,1.82a19.86,19.86,0,0,0,5.59,5.14l4.78,1.82c1.16.47-3.64-3-3.64-3a8.24,8.24,0,0,1-3.76-3.93c-.35-.69-.69-1.45-1.15-2.36-.87-1.82-3.32-3.64-5-6.91l-4.15-3.84c-.87-1.81-1.82-3.78-2.85-5.61a48.92,48.92,0,0,1-4.48-9.62,12.32,12.32,0,0,0-2.56-5L162,75.52c-4.72-10.2-14.94-11.31-4.53-13.11l3.64.56a17.2,17.2,0,0,1,4.09,1.22c2.91,1.29,7,3.2,8.89,6a13.19,13.19,0,0,0-3.2-4.21,41.2,41.2,0,0,0-10.69-5.2c-2.27-2.31,3.64-7.37,4.6-9.09a.56.56,0,0,1,.77-.18.41.41,0,0,1,.19.18l5.79,4c2.07,1,4.27,3.64,3.89,2.91L166,47.63c-.47-1,.82-1.82,1.69-1.16l13,5.32c.18.15,5-.89,4.56,4.4l1.82,6.88s.27,4.32.29,4.38l1.4,5.45c.13.46.25.91.42,1.35.65,1.82,2.12,6.32,2,5.31L189,66.68c-.13-1.1,2.3.3,2.87,1.31l1.22,2.26a1.05,1.05,0,0,0,1.1.54l4.24-.6a1.06,1.06,0,0,1,1.24.84h0v.2l2.11,4.07A20.22,20.22,0,0,1,204,82.94c.18,2.42.18,3.63.18,3.76s.11,1.36.16,2.6a29,29,0,0,1-.45,6.64l-1.11,6.14c.58.65,3.4-9.29,3.55-10.13.92-4.67.49-14.18.72-13.58s13.73,5.93,8.82,16.87c-.29.66,3.2-2.54,5.24-4,1.25-.89,8.9,15.33,8.9,15.33a.79.79,0,0,1,.13.49v23.78l-.2,54.87a1,1,0,0,1-1,1h-6l-41.07-.13H165.1L116,186.44H99.8l-41.2-.13H53.06a1,1,0,0,1-1.07-.95c-.22-2.92-.57-12.38-.9-23.5-.58-19.51-1.18-44.13-1.27-47.54a1,1,0,0,1,0-.65Z" transform="translate(-38.84 -8.03)"/><path class="cls-3" d="M118.19,10.16V9.9S118.32,10,118.19,10.16Z" transform="translate(-38.84 -8.03)"/><polygon class="cls-3" points="101.49 127.19 71.44 179.26 131.58 179.26 101.49 127.19"/><polygon class="cls-6" points="101.62 158.48 93.11 173.22 110.13 173.22 101.62 158.48"/><polygon class="cls-3" points="101.69 161.91 93.91 176 109.51 176 101.69 161.91"/><rect class="cls-3" x="67.55" y="174.73" width="9.4" height="4.04"/><rect class="cls-3" x="126.09" y="174.93" width="9.4" height="4.04"/><rect class="cls-3" x="135.91" y="127.59" width="2.82" height="10.74" transform="translate(-85.92 74.57) rotate(-28.8)"/><rect class="cls-3" x="137.6" y="131.47" width="10.74" height="2.82" transform="translate(-81.19 186.12) rotate(-61.2)"/><line class="cls-7" x1="150.63" y1="175.35" x2="102.53" y2="130.05"/><line class="cls-7" x1="52.5" y1="175.35" x2="100.29" y2="129.86"/><rect class="cls-1" x="100" y="168.61" width="2.24" height="10.47" transform="translate(-138.6 175.52) rotate(-62.58)"/><rect class="cls-1" x="108.44" y="156.82" width="2.24" height="10.47" transform="translate(-123.59 176.65) rotate(-62.58)"/><rect class="cls-1" x="119.45" y="145.9" width="2.24" height="10.47" transform="translate(-107.96 180.53) rotate(-62.58)"/><rect class="cls-1" x="175.26" y="173.02" width="10.47" height="2.24" transform="translate(-98.76 94.66) rotate(-27.42)"/><rect class="cls-1" x="165.96" y="161.39" width="10.47" height="2.24" transform="translate(-94.45 89.07) rotate(-27.42)"/><rect class="cls-1" x="154.44" y="150.8" width="10.47" height="2.24" transform="translate(-90.86 82.57) rotate(-27.42)"/><rect class="cls-1" x="88.27" y="175.95" width="26.56" height="0.45"/><path class="cls-1" d="M61.5,201.84l162-.84c1.74,0-.33,5.81-1.92,6.43l-43.75,9c-.59.23-8.93.28-9.4-.1L160.48,213c-1-.84-11.53-2-12.9-2L68.14,213a1.69,1.69,0,0,1-1.42-.61l-6.52-8.25A1.43,1.43,0,0,1,61.5,201.84Z" transform="translate(-38.84 -8.03)"/><path class="cls-1" d="M75.44,228l77.87-6.22c1.55-.08,2.16,1.58.79,2.17-2.88,1.25-3.19,5.24-2.52,6.53.92,1.8,47.35-5.61,59.61-6.68,1.11-.1,1.94.78,1.5,1.6a33.63,33.63,0,0,1-5.84,7.25c-6.19,4-65.08,5.49-66.78,5.61-2.43.17-37.28-1-53.69.63-1.54.15-2.27-1.45-1-2.12h0a1.05,1.05,0,0,0-.1-2l-10.49-4.61C73.54,229.61,74,228.07,75.44,228Z" transform="translate(-38.84 -8.03)"/><path class="cls-1" d="M98.14,253l36.4-3.83a76.8,76.8,0,0,1,11.75-.33l40.35,2c1.51.07,1.8,1.74.37,2.14l-19.53,5.4a105.11,105.11,0,0,1-51.35,1l-18.2-4.22C96.49,254.86,96.65,253.2,98.14,253Z" transform="translate(-38.84 -8.03)"/></g></svg>